<mxfile host="app.diagrams.net" modified="2024-03-10T19:58:55.422Z" agent="Mozilla/5.0 (Windows NT 10.0; Win64; x64) AppleWebKit/537.36 (KHTML, like Gecko) Chrome/122.0.0.0 Safari/537.36" etag="YltDBFrfA3MoMwMDSSDP" version="23.1.8" type="device">
  <diagram name="P치gina-1" id="cA2dRYfU7erkQ2wBKzAQ">
    <mxGraphModel dx="4097" dy="3323" grid="1" gridSize="10" guides="1" tooltips="1" connect="1" arrows="1" fold="1" page="1" pageScale="1" pageWidth="827" pageHeight="1169" math="0" shadow="0">
      <root>
        <mxCell id="0" />
        <mxCell id="1" parent="0" />
        <mxCell id="XQeP_fwZCXSP-Ta79wKZ-4" value="" style="rounded=0;whiteSpace=wrap;html=1;" vertex="1" parent="1">
          <mxGeometry x="210" y="190" width="440" height="170" as="geometry" />
        </mxCell>
        <mxCell id="XQeP_fwZCXSP-Ta79wKZ-3" value="Plaza 1" style="shape=image;html=1;verticalAlign=top;verticalLabelPosition=bottom;labelBackgroundColor=#ffffff;imageAspect=0;aspect=fixed;image=https://cdn2.iconfinder.com/data/icons/boxicons-solid-vol-1/24/bxs-car-garage-128.png" vertex="1" parent="1">
          <mxGeometry x="230" y="210" width="128" height="128" as="geometry" />
        </mxCell>
        <mxCell id="XQeP_fwZCXSP-Ta79wKZ-9" value="" style="rounded=0;whiteSpace=wrap;html=1;" vertex="1" parent="1">
          <mxGeometry x="210" y="-10" width="440" height="170" as="geometry" />
        </mxCell>
        <mxCell id="XQeP_fwZCXSP-Ta79wKZ-10" value="Sensor de la puerta del garaje" style="shape=image;html=1;verticalAlign=top;verticalLabelPosition=bottom;labelBackgroundColor=#ffffff;imageAspect=0;aspect=fixed;image=https://cdn1.iconfinder.com/data/icons/racing-13/512/Garage-128.png" vertex="1" parent="1">
          <mxGeometry x="496" y="3.5" width="128" height="128" as="geometry" />
        </mxCell>
        <mxCell id="XQeP_fwZCXSP-Ta79wKZ-11" value="" style="shape=mxgraph.cisco.buildings.generic_building;html=1;pointerEvents=1;dashed=0;fillColor=#000000;strokeColor=#ffffff;strokeWidth=2;verticalLabelPosition=bottom;verticalAlign=top;align=center;outlineConnect=0;" vertex="1" parent="1">
          <mxGeometry x="210" y="-270" width="200" height="230" as="geometry" />
        </mxCell>
        <mxCell id="XQeP_fwZCXSP-Ta79wKZ-12" value="Wifi" style="image;html=1;image=img/lib/clip_art/networking/Wireless_Router_128x128.png" vertex="1" parent="1">
          <mxGeometry x="199.25000000000003" y="-390" width="80" height="80" as="geometry" />
        </mxCell>
        <mxCell id="XQeP_fwZCXSP-Ta79wKZ-13" value="Ethernet" style="sketch=0;pointerEvents=1;shadow=0;dashed=0;html=1;strokeColor=none;fillColor=#434445;aspect=fixed;labelPosition=center;verticalLabelPosition=bottom;verticalAlign=top;align=center;outlineConnect=0;shape=mxgraph.vvd.ethernet_port;" vertex="1" parent="1">
          <mxGeometry x="380" y="-360" width="50" height="50" as="geometry" />
        </mxCell>
        <mxCell id="XQeP_fwZCXSP-Ta79wKZ-14" value="Estaci칩n de carga" style="shape=image;html=1;verticalAlign=top;verticalLabelPosition=bottom;labelBackgroundColor=#ffffff;imageAspect=0;aspect=fixed;image=https://cdn0.iconfinder.com/data/icons/green-world-colored/80/battery-energy-charger-charging-electric-station-tesla-128.png" vertex="1" parent="1">
          <mxGeometry x="540" y="230" width="98" height="98" as="geometry" />
        </mxCell>
        <mxCell id="XQeP_fwZCXSP-Ta79wKZ-17" value="Hub" style="image;aspect=fixed;perimeter=ellipsePerimeter;html=1;align=center;shadow=0;dashed=0;spacingTop=3;image=img/lib/active_directory/wiring_hub.svg;" vertex="1" parent="1">
          <mxGeometry x="230" y="50" width="102.94" height="70" as="geometry" />
        </mxCell>
        <mxCell id="XQeP_fwZCXSP-Ta79wKZ-19" value="" style="shape=image;verticalLabelPosition=bottom;labelBackgroundColor=default;verticalAlign=top;aspect=fixed;imageAspect=0;image=https://videosec.com/catpage/resources/img/zigbee-logo.png;" vertex="1" parent="1">
          <mxGeometry x="530" y="288" width="50" height="50" as="geometry" />
        </mxCell>
        <mxCell id="XQeP_fwZCXSP-Ta79wKZ-20" value="" style="rounded=0;whiteSpace=wrap;html=1;" vertex="1" parent="1">
          <mxGeometry x="210" y="390" width="440" height="170" as="geometry" />
        </mxCell>
        <mxCell id="XQeP_fwZCXSP-Ta79wKZ-21" value="Plaza 2" style="shape=image;html=1;verticalAlign=top;verticalLabelPosition=bottom;labelBackgroundColor=#ffffff;imageAspect=0;aspect=fixed;image=https://cdn2.iconfinder.com/data/icons/boxicons-solid-vol-1/24/bxs-car-garage-128.png" vertex="1" parent="1">
          <mxGeometry x="230" y="410" width="128" height="128" as="geometry" />
        </mxCell>
        <mxCell id="XQeP_fwZCXSP-Ta79wKZ-22" value="Estaci칩n de carga" style="shape=image;html=1;verticalAlign=top;verticalLabelPosition=bottom;labelBackgroundColor=#ffffff;imageAspect=0;aspect=fixed;image=https://cdn0.iconfinder.com/data/icons/green-world-colored/80/battery-energy-charger-charging-electric-station-tesla-128.png" vertex="1" parent="1">
          <mxGeometry x="540" y="430" width="98" height="98" as="geometry" />
        </mxCell>
        <mxCell id="XQeP_fwZCXSP-Ta79wKZ-23" value="" style="shape=image;verticalLabelPosition=bottom;labelBackgroundColor=default;verticalAlign=top;aspect=fixed;imageAspect=0;image=https://videosec.com/catpage/resources/img/zigbee-logo.png;" vertex="1" parent="1">
          <mxGeometry x="530" y="488" width="50" height="50" as="geometry" />
        </mxCell>
        <mxCell id="XQeP_fwZCXSP-Ta79wKZ-24" value="" style="rounded=0;whiteSpace=wrap;html=1;" vertex="1" parent="1">
          <mxGeometry x="210" y="584" width="440" height="170" as="geometry" />
        </mxCell>
        <mxCell id="XQeP_fwZCXSP-Ta79wKZ-25" value="Plaza N" style="shape=image;html=1;verticalAlign=top;verticalLabelPosition=bottom;labelBackgroundColor=#ffffff;imageAspect=0;aspect=fixed;image=https://cdn2.iconfinder.com/data/icons/boxicons-solid-vol-1/24/bxs-car-garage-128.png" vertex="1" parent="1">
          <mxGeometry x="230" y="604" width="128" height="128" as="geometry" />
        </mxCell>
        <mxCell id="XQeP_fwZCXSP-Ta79wKZ-26" value="Estaci칩n de carga" style="shape=image;html=1;verticalAlign=top;verticalLabelPosition=bottom;labelBackgroundColor=#ffffff;imageAspect=0;aspect=fixed;image=https://cdn0.iconfinder.com/data/icons/green-world-colored/80/battery-energy-charger-charging-electric-station-tesla-128.png" vertex="1" parent="1">
          <mxGeometry x="540" y="624" width="98" height="98" as="geometry" />
        </mxCell>
        <mxCell id="XQeP_fwZCXSP-Ta79wKZ-27" value="" style="shape=image;verticalLabelPosition=bottom;labelBackgroundColor=default;verticalAlign=top;aspect=fixed;imageAspect=0;image=https://videosec.com/catpage/resources/img/zigbee-logo.png;" vertex="1" parent="1">
          <mxGeometry x="530" y="682" width="50" height="50" as="geometry" />
        </mxCell>
        <mxCell id="XQeP_fwZCXSP-Ta79wKZ-28" value="&lt;font style=&quot;font-size: 21px;&quot;&gt;Planta -1&lt;/font&gt;" style="text;html=1;align=center;verticalAlign=middle;resizable=0;points=[];autosize=1;strokeColor=none;fillColor=none;" vertex="1" parent="1">
          <mxGeometry x="75" y="255" width="110" height="40" as="geometry" />
        </mxCell>
        <mxCell id="XQeP_fwZCXSP-Ta79wKZ-29" value="&lt;font style=&quot;font-size: 21px;&quot;&gt;Planta -2&lt;/font&gt;" style="text;html=1;align=center;verticalAlign=middle;resizable=0;points=[];autosize=1;strokeColor=none;fillColor=none;" vertex="1" parent="1">
          <mxGeometry x="75" y="448" width="110" height="40" as="geometry" />
        </mxCell>
        <mxCell id="XQeP_fwZCXSP-Ta79wKZ-30" value="&lt;font style=&quot;font-size: 21px;&quot;&gt;Planta -N&lt;/font&gt;" style="text;html=1;align=center;verticalAlign=middle;resizable=0;points=[];autosize=1;strokeColor=none;fillColor=none;" vertex="1" parent="1">
          <mxGeometry x="75" y="640" width="110" height="40" as="geometry" />
        </mxCell>
        <mxCell id="XQeP_fwZCXSP-Ta79wKZ-31" value="" style="endArrow=none;dashed=1;html=1;dashPattern=1 3;strokeWidth=2;rounded=0;exitX=1;exitY=1;exitDx=0;exitDy=0;entryX=0;entryY=0.25;entryDx=0;entryDy=0;fillColor=#f8cecc;strokeColor=#b85450;" edge="1" parent="1" source="XQeP_fwZCXSP-Ta79wKZ-17" target="XQeP_fwZCXSP-Ta79wKZ-19">
          <mxGeometry width="50" height="50" relative="1" as="geometry">
            <mxPoint x="120" y="380" as="sourcePoint" />
            <mxPoint x="170" y="330" as="targetPoint" />
          </mxGeometry>
        </mxCell>
        <mxCell id="XQeP_fwZCXSP-Ta79wKZ-32" value="" style="endArrow=none;dashed=1;html=1;dashPattern=1 3;strokeWidth=2;rounded=0;exitX=1;exitY=1;exitDx=0;exitDy=0;entryX=0;entryY=0.5;entryDx=0;entryDy=0;fillColor=#f8cecc;strokeColor=#b85450;" edge="1" parent="1" target="XQeP_fwZCXSP-Ta79wKZ-23">
          <mxGeometry width="50" height="50" relative="1" as="geometry">
            <mxPoint x="328" y="120" as="sourcePoint" />
            <mxPoint x="540" y="311" as="targetPoint" />
          </mxGeometry>
        </mxCell>
        <mxCell id="XQeP_fwZCXSP-Ta79wKZ-33" value="" style="endArrow=none;dashed=1;html=1;dashPattern=1 3;strokeWidth=2;rounded=0;exitX=1;exitY=1;exitDx=0;exitDy=0;entryX=0;entryY=0.25;entryDx=0;entryDy=0;fillColor=#f8cecc;strokeColor=#b85450;" edge="1" parent="1" target="XQeP_fwZCXSP-Ta79wKZ-27">
          <mxGeometry width="50" height="50" relative="1" as="geometry">
            <mxPoint x="338" y="130" as="sourcePoint" />
            <mxPoint x="550" y="321" as="targetPoint" />
          </mxGeometry>
        </mxCell>
        <mxCell id="XQeP_fwZCXSP-Ta79wKZ-35" value="Usuario" style="sketch=0;pointerEvents=1;shadow=0;dashed=0;html=1;strokeColor=none;fillColor=#505050;labelPosition=center;verticalLabelPosition=bottom;verticalAlign=top;outlineConnect=0;align=center;shape=mxgraph.office.users.mobile_user;" vertex="1" parent="1">
          <mxGeometry x="700" y="38.5" width="100" height="93" as="geometry" />
        </mxCell>
        <mxCell id="XQeP_fwZCXSP-Ta79wKZ-37" value="" style="html=1;strokeWidth=1;shadow=0;dashed=0;shape=mxgraph.ios7.misc.bluetooth;fillColor=#007AFF;strokeColor=none;buttonText=;strokeColor2=#222222;fontColor=#222222;fontSize=8;verticalLabelPosition=bottom;verticalAlign=top;align=center;sketch=0;" vertex="1" parent="1">
          <mxGeometry x="700" y="92.5" width="40" height="39" as="geometry" />
        </mxCell>
        <mxCell id="XQeP_fwZCXSP-Ta79wKZ-39" value="" style="shape=image;verticalLabelPosition=bottom;labelBackgroundColor=default;verticalAlign=top;aspect=fixed;imageAspect=0;image=https://cdn-icons-png.flaticon.com/512/4298/4298126.png;" vertex="1" parent="1">
          <mxGeometry x="40" y="-250" width="52" height="52" as="geometry" />
        </mxCell>
        <mxCell id="XQeP_fwZCXSP-Ta79wKZ-40" value="" style="image;aspect=fixed;perimeter=ellipsePerimeter;html=1;align=center;shadow=0;dashed=0;spacingTop=3;image=img/lib/active_directory/internet_cloud.svg;" vertex="1" parent="1">
          <mxGeometry x="223" y="-540" width="190.48" height="120" as="geometry" />
        </mxCell>
        <mxCell id="XQeP_fwZCXSP-Ta79wKZ-41" value="" style="endArrow=none;dashed=1;html=1;dashPattern=1 3;strokeWidth=4;rounded=0;exitX=0.75;exitY=1;exitDx=0;exitDy=0;entryX=0;entryY=0;entryDx=0;entryDy=0;fillColor=#e1d5e7;strokeColor=#9673a6;" edge="1" parent="1" source="XQeP_fwZCXSP-Ta79wKZ-39" target="XQeP_fwZCXSP-Ta79wKZ-17">
          <mxGeometry width="50" height="50" relative="1" as="geometry">
            <mxPoint x="328" y="120" as="sourcePoint" />
            <mxPoint x="540" y="311" as="targetPoint" />
          </mxGeometry>
        </mxCell>
        <mxCell id="XQeP_fwZCXSP-Ta79wKZ-42" value="" style="endArrow=none;dashed=1;html=1;dashPattern=1 3;strokeWidth=4;rounded=0;exitX=0.5;exitY=0;exitDx=0;exitDy=0;entryX=0;entryY=0.75;entryDx=0;entryDy=0;fillColor=#e1d5e7;strokeColor=#9673a6;" edge="1" parent="1" source="XQeP_fwZCXSP-Ta79wKZ-39" target="XQeP_fwZCXSP-Ta79wKZ-40">
          <mxGeometry width="50" height="50" relative="1" as="geometry">
            <mxPoint x="500" y="-150" as="sourcePoint" />
            <mxPoint x="550" y="-200" as="targetPoint" />
          </mxGeometry>
        </mxCell>
        <mxCell id="XQeP_fwZCXSP-Ta79wKZ-43" value="" style="endArrow=none;dashed=1;html=1;dashPattern=1 3;strokeWidth=2;rounded=0;exitX=0.476;exitY=-0.086;exitDx=0;exitDy=0;exitPerimeter=0;fillColor=#e1d5e7;strokeColor=#000000;" edge="1" parent="1" source="XQeP_fwZCXSP-Ta79wKZ-17" target="XQeP_fwZCXSP-Ta79wKZ-11">
          <mxGeometry width="50" height="50" relative="1" as="geometry">
            <mxPoint x="500" y="-150" as="sourcePoint" />
            <mxPoint x="550" y="-200" as="targetPoint" />
          </mxGeometry>
        </mxCell>
        <mxCell id="XQeP_fwZCXSP-Ta79wKZ-44" value="" style="endArrow=none;dashed=1;html=1;dashPattern=1 3;strokeWidth=3;rounded=0;fillColor=#e1d5e7;strokeColor=#000000;entryX=0.25;entryY=1;entryDx=0;entryDy=0;exitX=0.75;exitY=0;exitDx=0;exitDy=0;" edge="1" parent="1" source="XQeP_fwZCXSP-Ta79wKZ-12" target="XQeP_fwZCXSP-Ta79wKZ-40">
          <mxGeometry width="50" height="50" relative="1" as="geometry">
            <mxPoint x="276" y="-390" as="sourcePoint" />
            <mxPoint x="302" y="-30" as="targetPoint" />
          </mxGeometry>
        </mxCell>
        <mxCell id="XQeP_fwZCXSP-Ta79wKZ-45" value="" style="endArrow=none;dashed=1;html=1;dashPattern=1 3;strokeWidth=3;rounded=0;fillColor=#e1d5e7;strokeColor=#000000;entryX=0.75;entryY=1;entryDx=0;entryDy=0;" edge="1" parent="1" source="XQeP_fwZCXSP-Ta79wKZ-13" target="XQeP_fwZCXSP-Ta79wKZ-40">
          <mxGeometry width="50" height="50" relative="1" as="geometry">
            <mxPoint x="360" y="-380" as="sourcePoint" />
            <mxPoint x="286" y="-416" as="targetPoint" />
          </mxGeometry>
        </mxCell>
        <mxCell id="XQeP_fwZCXSP-Ta79wKZ-48" value="" style="endArrow=none;dashed=1;html=1;dashPattern=1 3;strokeWidth=2;rounded=0;entryX=0.5;entryY=0;entryDx=0;entryDy=0;entryPerimeter=0;" edge="1" parent="1" source="XQeP_fwZCXSP-Ta79wKZ-13" target="XQeP_fwZCXSP-Ta79wKZ-11">
          <mxGeometry width="50" height="50" relative="1" as="geometry">
            <mxPoint x="360" y="-310" as="sourcePoint" />
            <mxPoint x="550" y="-200" as="targetPoint" />
          </mxGeometry>
        </mxCell>
        <mxCell id="XQeP_fwZCXSP-Ta79wKZ-49" value="" style="endArrow=none;dashed=1;html=1;dashPattern=1 3;strokeWidth=2;rounded=0;entryX=0.5;entryY=1;entryDx=0;entryDy=0;exitX=0.5;exitY=0;exitDx=0;exitDy=0;exitPerimeter=0;" edge="1" parent="1" source="XQeP_fwZCXSP-Ta79wKZ-11" target="XQeP_fwZCXSP-Ta79wKZ-12">
          <mxGeometry width="50" height="50" relative="1" as="geometry">
            <mxPoint x="370" y="-300" as="sourcePoint" />
            <mxPoint x="320" y="-260" as="targetPoint" />
          </mxGeometry>
        </mxCell>
        <mxCell id="XQeP_fwZCXSP-Ta79wKZ-50" value="" style="endArrow=none;html=1;rounded=0;" edge="1" parent="1">
          <mxGeometry width="50" height="50" relative="1" as="geometry">
            <mxPoint x="920" y="-10" as="sourcePoint" />
            <mxPoint x="920" y="760" as="targetPoint" />
          </mxGeometry>
        </mxCell>
        <mxCell id="XQeP_fwZCXSP-Ta79wKZ-52" value="Atenuaci칩n &lt;br style=&quot;font-size: 23px;&quot;&gt;de la se침al" style="text;html=1;align=center;verticalAlign=middle;resizable=0;points=[];autosize=1;strokeColor=none;fillColor=none;fontSize=23;" vertex="1" parent="1">
          <mxGeometry x="940" y="310" width="140" height="70" as="geometry" />
        </mxCell>
        <mxCell id="XQeP_fwZCXSP-Ta79wKZ-53" value="-" style="text;html=1;align=center;verticalAlign=middle;resizable=0;points=[];autosize=1;strokeColor=none;fillColor=none;fontSize=23;fontStyle=1" vertex="1" parent="1">
          <mxGeometry x="995" y="5" width="30" height="40" as="geometry" />
        </mxCell>
        <mxCell id="XQeP_fwZCXSP-Ta79wKZ-54" value="+" style="text;html=1;align=center;verticalAlign=middle;resizable=0;points=[];autosize=1;strokeColor=none;fillColor=none;fontSize=23;fontStyle=1" vertex="1" parent="1">
          <mxGeometry x="990" y="670" width="40" height="40" as="geometry" />
        </mxCell>
        <mxCell id="XQeP_fwZCXSP-Ta79wKZ-55" value="" style="endArrow=none;dashed=1;html=1;dashPattern=1 3;strokeWidth=4;rounded=0;fillColor=#dae8fc;strokeColor=#6c8ebf;" edge="1" parent="1" source="XQeP_fwZCXSP-Ta79wKZ-35" target="XQeP_fwZCXSP-Ta79wKZ-10">
          <mxGeometry width="50" height="50" relative="1" as="geometry">
            <mxPoint x="460" y="-190" as="sourcePoint" />
            <mxPoint x="510" y="-240" as="targetPoint" />
          </mxGeometry>
        </mxCell>
        <mxCell id="XQeP_fwZCXSP-Ta79wKZ-56" value="" style="endArrow=none;dashed=1;html=1;dashPattern=1 3;strokeWidth=4;rounded=0;exitX=1;exitY=0.5;exitDx=0;exitDy=0;entryX=0;entryY=0.5;entryDx=0;entryDy=0;fillColor=#dae8fc;strokeColor=#6c8ebf;" edge="1" parent="1" source="XQeP_fwZCXSP-Ta79wKZ-17" target="XQeP_fwZCXSP-Ta79wKZ-10">
          <mxGeometry width="50" height="50" relative="1" as="geometry">
            <mxPoint x="460" y="10" as="sourcePoint" />
            <mxPoint x="510" y="-40" as="targetPoint" />
          </mxGeometry>
        </mxCell>
        <mxCell id="XQeP_fwZCXSP-Ta79wKZ-57" value="Zigbee" style="rounded=0;whiteSpace=wrap;html=1;fillColor=#f8cecc;strokeColor=#b85450;" vertex="1" parent="1">
          <mxGeometry x="624" y="-350" width="106" height="60" as="geometry" />
        </mxCell>
        <mxCell id="XQeP_fwZCXSP-Ta79wKZ-58" value="Bluetooth" style="rounded=0;whiteSpace=wrap;html=1;fillColor=#dae8fc;strokeColor=#6c8ebf;" vertex="1" parent="1">
          <mxGeometry x="746" y="-350" width="104" height="60" as="geometry" />
        </mxCell>
        <mxCell id="XQeP_fwZCXSP-Ta79wKZ-59" value="Datos m칩viles" style="rounded=0;whiteSpace=wrap;html=1;fillColor=#e1d5e7;strokeColor=#9673a6;" vertex="1" parent="1">
          <mxGeometry x="624" y="-280" width="106" height="60" as="geometry" />
        </mxCell>
        <mxCell id="XQeP_fwZCXSP-Ta79wKZ-60" value="Ethernet&lt;br&gt;Wifi" style="rounded=0;whiteSpace=wrap;html=1;fillColor=#f5f5f5;strokeColor=#666666;gradientColor=#b3b3b3;" vertex="1" parent="1">
          <mxGeometry x="746" y="-280" width="104" height="60" as="geometry" />
        </mxCell>
        <mxCell id="XQeP_fwZCXSP-Ta79wKZ-61" value="" style="html=1;strokeWidth=1;shadow=0;dashed=0;shape=mxgraph.ios7.misc.bluetooth;fillColor=#007AFF;strokeColor=none;buttonText=;strokeColor2=#222222;fontColor=#222222;fontSize=8;verticalLabelPosition=bottom;verticalAlign=top;align=center;sketch=0;" vertex="1" parent="1">
          <mxGeometry x="496" y="92.5" width="40" height="39" as="geometry" />
        </mxCell>
        <mxCell id="XQeP_fwZCXSP-Ta79wKZ-62" value="" style="shape=image;verticalLabelPosition=bottom;labelBackgroundColor=default;verticalAlign=top;aspect=fixed;imageAspect=0;image=https://videosec.com/catpage/resources/img/zigbee-logo.png;" vertex="1" parent="1">
          <mxGeometry x="223" y="70" width="32.5" height="32.5" as="geometry" />
        </mxCell>
        <mxCell id="XQeP_fwZCXSP-Ta79wKZ-63" value="" style="html=1;strokeWidth=1;shadow=0;dashed=0;shape=mxgraph.ios7.misc.bluetooth;fillColor=#007AFF;strokeColor=none;buttonText=;strokeColor2=#222222;fontColor=#222222;fontSize=8;verticalLabelPosition=bottom;verticalAlign=top;align=center;sketch=0;" vertex="1" parent="1">
          <mxGeometry x="265" y="92.5" width="26" height="27" as="geometry" />
        </mxCell>
        <mxCell id="XQeP_fwZCXSP-Ta79wKZ-64" value="" style="shape=image;verticalLabelPosition=bottom;labelBackgroundColor=default;verticalAlign=top;aspect=fixed;imageAspect=0;image=https://upload.wikimedia.org/wikipedia/commons/thumb/a/ae/WiFi_Logo.svg/640px-WiFi_Logo.svg.png;" vertex="1" parent="1">
          <mxGeometry x="280" y="60" width="55.34" height="32.77" as="geometry" />
        </mxCell>
        <mxCell id="XQeP_fwZCXSP-Ta79wKZ-65" value="" style="shape=image;verticalLabelPosition=bottom;labelBackgroundColor=default;verticalAlign=top;aspect=fixed;imageAspect=0;image=https://cdn.icon-icons.com/icons2/585/PNG/256/EthernetCable_icon-icons.com_55235.png;" vertex="1" parent="1">
          <mxGeometry x="255" y="45" width="36" height="36" as="geometry" />
        </mxCell>
        <mxCell id="XQeP_fwZCXSP-Ta79wKZ-66" value="" style="shape=image;verticalLabelPosition=bottom;labelBackgroundColor=default;verticalAlign=top;aspect=fixed;imageAspect=0;image=https://cdn-icons-png.flaticon.com/512/4298/4298126.png;" vertex="1" parent="1">
          <mxGeometry x="262" y="65.38" width="22" height="22" as="geometry" />
        </mxCell>
      </root>
    </mxGraphModel>
  </diagram>
</mxfile>
